<svg xmlns="http://www.w3.org/2000/svg" xmlns:xlink="http://www.w3.org/1999/xlink" id="Layer_1" x="0px" y="0px" viewBox="0 0 1080 313" style="enable-background:new 0 0 1080 313;" xml:space="preserve"><style type="text/css">	.st0{fill:#F9D66C;}	.st1{fill:#805E46;}	.st2{fill:#865C42;}	.st3{fill:#9EA0A3;}</style><g>	<g>		<path class="st0" d="M931.7,260.35c4.88,0.07,9.14,4.29,9.23,9.18c0.09,5.09-4.41,9.59-9.51,9.49c-4.94-0.08-9.1-4.25-9.18-9.18   C922.18,264.67,926.52,260.3,931.7,260.35z"></path>		<path class="st0" d="M974.39,275.39c-3.1-0.7-5.18-2.5-4.92-5.86c0.23-3.01,2.23-4.96,5.26-4.86c3.22,0.09,5.37,2.07,5.26,5.45   C979.86,273.43,977.69,275.07,974.39,275.39z"></path>		<path class="st0" d="M875.49,284.72c-8.11-0.1-13.96-6.19-13.89-14.39c0.08-8.01,6.33-14.28,14.18-14.27   c7.9,0.01,14.61,6.98,14.33,14.85C889.85,278.83,883.48,284.83,875.49,284.72z"></path>		<path class="st1" d="M753.81,248.51c3.74-1.29,5.99,0.1,7.86,3.08c3.44,5.43,7.12,10.69,10.66,15.94   c7.28-5.78,7.88-17.28,17.75-19.9c0.46,0.38,0.93,0.76,1.37,1.13c-3.46,5.36-6.64,10.96-10.45,16.05   c-4.32,5.76-6.65,11.82-5.67,19.05c0.31,2.24,0.05,4.58,0,6.86c-0.05,2.27-1.73,2.07-3.27,2.16c-1.62,0.09-2.58-0.48-2.52-2.24   c0-0.18-0.05-0.38,0-0.57c3.14-15.02-5.78-25.63-13.41-36.73C755.19,251.96,753.86,250.74,753.81,248.51z"></path>		<path class="st1" d="M720.58,263.61c-3.38,6.74-6.69,13.54-10.21,20.22c-0.98,1.85-1.24,4.72-4.38,4.6   c-2.84-0.1-2.91-2.76-3.81-4.47c-3.64-6.89-7.11-13.84-12.1-20.63c0,3.63,0,7.25,0,10.88c0,5.16-0.05,10.34,0.01,15.49   c0.03,2.07-0.52,3.2-2.87,3.23c-2.36,0.05-2.91-1.06-2.88-3.14c0.05-12.82,0.01-25.64,0.03-38.46c0-1.49-0.26-3.12,2.09-3.29   c2.39-0.17,3.87,0.57,5,2.83c3.98,8.05,8.11,16.03,12.25,24.01c0.76,1.45,1.04,3.23,3.26,4.49c4.53-9.08,9.06-18.05,13.49-27.08   c1.23-2.52,2.28-4.93,5.79-4.17c3.64,0.77,2.02,3.66,2.06,5.6c0.16,11.67,0.08,23.35,0.08,35c0,2.15,0.29,4.23-3.01,4.23   c-3.57,0-2.71-2.44-2.74-4.36c-0.07-8.19-0.03-16.35-0.03-24.55C721.89,263.88,721.24,263.74,720.58,263.61z"></path>		<path class="st1" d="M632.63,270.44c0-6.13,0.1-12.26-0.05-18.36c-0.07-2.83,0.59-4.17,3.78-4.06c5.73,0.23,11.49,0.09,17.23,0.05   c2.01-0.01,3.73-0.1,3.86,2.79c0.16,3.31-1.84,3.14-4.06,3.12c-3.44-0.05-6.91,0.21-10.34-0.08c-3.63-0.31-4.88,1.12-4.41,4.56   c0.12,0.94,0.14,1.93,0,2.87c-0.76,4.81,0.7,7.28,6.06,6.34c1.85-0.33,3.82,0,5.73-0.03c2.26-0.03,2.26,1.55,2.31,3.13   c0.05,1.59-0.5,2.58-2.28,2.48c-0.77-0.05-1.54,0-2.31,0.01c-10.08,0.18-9.91,0.18-9.6,10.26c0.09,3.23,1.37,3.8,4.12,3.69   c3.82-0.17,7.67,0.03,11.49-0.07c2.07-0.07,3.21,0.5,3.23,2.83c0.03,2.36-1.12,2.88-3.2,2.86c-5.93-0.08-11.87-0.17-17.8,0.03   c-3.13,0.1-3.91-1.17-3.83-4.04C632.74,282.68,632.63,276.55,632.63,270.44z"></path>		<path class="st1" d="M568.91,270.1c0-6.12,0.03-12.25-0.01-18.35c-0.01-2.14,0.26-3.81,3.03-3.69c6.1,0.27,12.25-0.64,18.26,1.06   c10.17,2.87,16.22,10.54,16.37,20.91c0.16,10.6-5.88,19.02-15.99,21.82c-6.73,1.85-14.59,3-20.18,0.16   c-4.04-2.06-0.94-10.19-1.43-15.57C568.75,274.33,568.91,272.2,568.91,270.1z M574.73,270.46c0,4.4-0.03,8.76,0.01,13.16   c0.01,1.24-0.35,2.58,1.32,3.39c7.69,3.66,21.65-3.31,23.59-11.89c3.13-13.92-8.88-25.05-22.82-21.26   c-2.1,0.57-2.09,1.9-2.09,3.43C574.71,261.67,574.73,266.06,574.73,270.46z"></path>		<path class="st1" d="M523.93,248.1c2.82-0.53,3.48,1.46,4.29,3.52c4.85,12.44,9.78,24.85,14.61,37.31   c0.46,1.19,2.19,3.01-0.18,3.74c-1.59,0.5-3.83,1.06-5.13-1.11c-0.2-0.33-0.31-0.7-0.5-1.03c-1.79-3.08-1.15-8.39-4.72-9.25   c-5.05-1.23-10.6-0.44-15.94-0.51c-2.24-0.03-2.75,1.75-3.39,3.31c-0.94,2.28-1.81,4.62-2.69,6.94c-0.94,2.5-3.18,2.19-4.84,1.67   c-2.48-0.77-0.63-2.53-0.18-3.72c4.79-12.68,9.7-25.3,14.5-37.97C520.54,249,521.54,247.67,523.93,248.1z M524.41,258.13   c-0.46,0-0.93,0-1.37,0c-1.85,4.76-3.72,9.51-5.54,14.27c-0.38,0.98-1.21,2.75,0.12,2.88c3.95,0.42,7.96,0.4,11.92,0.2   c1.58-0.08,1.13-1.64,0.72-2.69C528.32,267.89,526.37,263.02,524.41,258.13z"></path>		<path class="st1" d="M451.01,271.21c0.16,1.19,0.23,3.31,0.77,5.33c1.46,5.48,4.5,9.86,10.13,11.5c5.79,1.67,11.2,0.52,14.93-4.51   c2-2.69,3.78-2.07,5.67-0.53c2.61,2.1-0.21,3.43-1.19,4.56c-5.97,6.99-17.91,8.84-25.73,3.95c-8.1-5.07-11.24-12.89-10.89-22.05   c0.35-8.96,4-16.29,12.31-20.63c8.56-4.46,19.55-1.92,25.24,5.8c0.78,1.06,2.78,2.31,0.57,3.64c-1.59,0.97-3.38,2.74-5.43,0.08   c-4.3-5.61-9.95-7.93-16.67-4.92C453.67,256.61,451.19,262.87,451.01,271.21z"></path>		<path class="st1" d="M423.82,290.95c0.18,1.36-0.46,1.8-1.58,1.9c-2.27,0.25-3.9-0.2-4.94-2.69c-1.3-3.09-1.37-8.07-4.43-8.8   c-5.26-1.23-10.97-0.53-16.49-0.57c-1.55-0.01-2.26,1.12-2.7,2.5c-0.52,1.63-1.23,3.21-1.83,4.83c-1.02,2.71-2.14,6.21-5.74,4.51   c-3.4-1.62-0.2-4.3,0.51-6.21c4.4-11.79,9.06-23.49,13.59-35.21c0.76-1.93,1.59-3.3,4.04-3.2c1.93,0.08,3.2,0.57,3.95,2.5   c5.02,12.98,10.13,25.93,15.21,38.89C423.59,289.93,423.7,290.5,423.82,290.95z M404.08,256.44c-1.28,3.22-2.18,5.43-3.01,7.64   c-4.85,12.91-4.84,12.91,10.09,11.12C409.6,268.97,406.85,263.28,404.08,256.44z"></path>	</g>	<g>		<path class="st1" d="M1002.5,153.58c-0.06-15.86,10.32-30.32,25.12-35.02c15.7-4.98,33.46,1.14,42.76,14.51   c1.45,2.08,0.45,2.86-0.84,4.05c-12.49,11.6-24.99,23.2-37.44,34.85c-0.99,0.92-2.99,1.66-2.4,3.21c0.47,1.27,2.43,1.41,3.83,1.7   c10.8,2.26,19.57-1.58,26.51-9.61c2.31-2.67,3.56-2.38,5.38-0.04c0.22,0.28,0.52,0.51,0.78,0.75c5.23,4.98,5.23,4.98,0.38,10.22   c-10.34,11.16-26.8,14.77-41.34,9.07C1011.63,181.93,1002.56,168.49,1002.5,153.58z M1038.39,129.01   c-7.14,0.14-13.15,2.81-17.9,8.17c-7.67,8.68-8.28,22.22-1.5,30.01c1.46,1.68,2.4,2.11,4.25,0.27   c9.77-9.72,19.63-19.34,29.59-28.85c2.13-2.04,1.78-3.18-0.34-4.75C1048.29,130.74,1043.7,128.88,1038.39,129.01z"></path>		<path class="st1" d="M966.57,116.86c11.02,0.32,21.36,5.62,29.17,15.97c1.33,1.75,1.12,2.69-0.46,4.13   c-12.8,11.8-25.51,23.71-38.24,35.59c-2.92,2.72-2.91,2.99,1,4.03c11.2,2.97,20.27-0.99,27.56-9.29c2.31-2.63,3.57-2.46,5.39-0.04   c0.21,0.28,0.51,0.52,0.78,0.77c5.25,5.1,5.25,5.1,0.07,10.49c-10.82,11.28-27.49,14.58-42.1,8.34   c-13.44-5.74-22.23-19.82-21.72-34.78C928.69,132.43,944.95,116.79,966.57,116.86z M964.25,128.99   c-8.87,0.21-15.83,3.91-20.6,11.44c-5.53,8.74-4.92,20.66,1.21,27.07c1.11,1.15,1.9,1.95,3.47,0.4   c10.16-10.02,20.39-19.96,30.65-29.87c1.45-1.4,1.27-2.31-0.13-3.47C974.62,131.04,969.86,128.96,964.25,128.99z"></path>		<path class="st1" d="M893.23,119.42c14.78,3.69,24.01,12.19,26.77,26.89c3.2,17.1-7.17,34.92-23.58,40.83   c-3.77,1.37-7.62,2.4-11.66,2.43c-10.03,0.05-20.08-0.04-30.11,0.14c-3.07,0.06-2.48-1.84-2.48-3.56   c-0.01-30.72-0.01-61.44-0.01-92.16c0-0.25,0.02-0.48,0-0.73c-0.26-1.99,0.47-2.73,2.59-2.71c9.68,0.12,19.35-0.07,29.03,0.12   c9.27,0.19,16.07,6.29,16.93,14.74C901.32,111.57,898.94,116.21,893.23,119.42z M865.28,151.29c0,7.37,0.07,14.76-0.05,22.13   c-0.04,2.3,0.54,3.21,3,3.12c5.08-0.18,10.15,0.02,15.23-0.09c13.12-0.31,23.81-11.11,24.11-24.22   c0.29-13.47-9.46-24.46-22.8-25.35c-5.53-0.37-11.12-0.06-16.68-0.25c-2.26-0.07-2.91,0.71-2.87,2.91   C865.35,136.78,865.28,144.04,865.28,151.29z M875.28,116.85c2.3,0,4.58,0.04,6.88-0.01c4.71-0.09,7.83-3.09,7.94-7.55   c0.11-4.48-2.92-7.77-7.57-7.9c-4.95-0.14-9.89,0.04-14.83-0.08c-1.95-0.05-2.48,0.74-2.44,2.56c0.09,3.5,0.14,7-0.01,10.49   c-0.11,2.21,0.91,2.61,2.8,2.53C870.45,116.75,872.87,116.85,875.28,116.85z"></path>		<path class="st1" d="M798.06,128.25c26.11,14.54,17.51,49.34-6.54,57.85c3.66,2.06,6.39,4.84,8.16,8.48   c4.15,8.5,2.19,18.17-4.92,24.44c-10.91,9.61-30.9,7.6-38.49-3.86c-2.32-3.52-3.33-7.45-3.72-11.62   c-0.15-1.67,0.27-2.53,2.12-2.39c1.32,0.11,2.67,0.13,3.99,0c3.76-0.35,6.39-0.2,7.75,4.66c1.54,5.58,8.89,8.34,14.44,6.67   c5.52-1.67,9.1-7.17,8.37-12.87c-0.73-5.65-5.49-9.42-12.19-9.63c-16.85-0.54-30.49-11.03-34.81-26.78   c-4.29-15.59,2.26-32.29,16.11-40.98c5.45-3.42,11.45-5.24,17.86-5.31c11.49-0.12,22.99,0,34.48-0.08   c2.08-0.01,2.97,0.35,3.01,2.73c0.19,8.86,0.28,8.84-8.53,8.7C803.14,128.21,801.09,128.25,798.06,128.25z M777.28,177.19   c13.15,0.05,23.78-10.47,23.82-23.59c0.05-13.06-10.59-24.05-23.44-24.21c-13.01-0.16-23.91,10.76-23.95,24.02   C753.68,166.7,764.03,177.14,777.28,177.19z"></path>		<path class="st1" d="M672.78,130.32c3.82-3.54,7.11-7.16,11.53-9.55c18.1-9.79,40.65-0.57,46.69,19.11   c1.21,3.95,1.92,7.97,1.91,12.13c-0.04,11.49-0.09,22.99,0.05,34.48c0.04,2.59-0.75,3.21-3.25,3.2c-9.36-0.05-9.36,0.05-9.36-9.44   c0-8.83,0.04-17.66-0.01-26.5c-0.07-13.41-10.25-24.14-23.2-24.52c-12.49-0.37-23.51,9.64-24.12,22.76   c-0.54,11.35-0.29,22.74-0.16,34.1c0.04,2.92-0.86,3.63-3.66,3.59c-9.02-0.12-9.02,0-9.02-9.03c0-19.96,0.07-39.92-0.07-59.9   c-0.02-3.1,0.94-3.79,3.87-3.74c8.81,0.15,8.81,0.04,8.81,8.94C672.78,127.43,672.78,128.88,672.78,130.32z"></path>		<path class="st1" d="M637.03,153.52c0-11.12,0.06-22.22-0.05-33.34c-0.02-2.34,0.59-3.1,3.01-3.12c9.56-0.09,9.56-0.18,9.56,9.2   c0,19.93-0.05,39.86,0.06,59.79c0.01,2.74-0.59,3.73-3.56,3.69c-9.02-0.15-9.02-0.01-9.02-9.03   C637.03,171.63,637.03,162.57,637.03,153.52z"></path>		<path class="st1" d="M635.35,95.48c0.01-4.32,3.45-7.81,7.76-7.87c4.49-0.07,8.11,3.49,8.11,7.94c0,4.33-3.84,8.06-8.17,7.93   C638.81,103.36,635.33,99.73,635.35,95.48z"></path>		<path class="st1" d="M612.84,175.92c-4.13,5.08-8.21,8.93-13.46,11.27c-15.69,6.98-33.17,0.61-42.02-15.26   c-10.48-18.83-2.93-43.23,16.18-52.31c11.92-5.66,26.47-2.65,35.82,7.42c0.98,1.06,1.9,2.18,2.87,3.32   c1.1-0.87,0.54-2.04,0.55-3.01c0.05-10.03,0.08-20.07-0.01-30.1c-0.02-2.13,0.49-2.9,2.8-2.93c9.83-0.18,9.83-0.25,9.83,9.67   c0,27.32-0.05,54.65,0.07,81.98c0.01,3-0.75,4.13-3.78,3.74c-2.85-0.37-6.67,1.21-8.35-0.65c-1.41-1.57-0.46-5.29-0.52-8.06   C612.82,179.57,612.84,178.17,612.84,175.92z M589.17,177.19c13.25-0.04,23.74-10.55,23.67-23.73   c-0.08-12.97-10.91-23.95-23.71-24.07c-13.06-0.12-23.77,10.82-23.71,24.24C565.49,167.01,575.78,177.22,589.17,177.19z"></path>		<path class="st1" d="M546.06,153.47c0,20.28-16.1,36.47-36.28,36.48c-20.29,0.01-36.3-16.04-36.31-36.41   c-0.01-20.6,15.99-36.72,36.41-36.68C529.97,116.88,546.06,133.17,546.06,153.47z M509.64,177.19   c13.25,0.05,23.85-10.35,23.95-23.52c0.11-13.12-10.88-24.31-23.82-24.27c-12.98,0.02-23.88,11.2-23.77,24.34   C486.11,166.74,496.6,177.14,509.64,177.19z"></path>		<path class="st1" d="M429.15,189.62c-27.26-0.07-49.41-22.16-49.54-49.38c-0.12-27.27,22.18-49.52,49.64-49.65   c15.98-0.07,28.75,6.29,38.66,18.71c1.53,1.91,1.54,3.16-0.34,4.76c-2.2,1.88-3.96,5.39-6.27,5.72c-2.52,0.35-3.8-3.72-5.82-5.69   c-12.52-12.29-32.21-13.97-47.01-3.86c-13.92,9.5-19.54,28.62-12.88,43.76c7.4,16.84,24.67,25.76,42.12,21.59   c8.4-2,15.2-6.75,20.81-13.17c1.68-1.93,2.86-2.26,4.37-0.08c0.07,0.09,0.16,0.18,0.26,0.26c6.85,6.7,6.9,6.75-0.22,13.52   C453.48,185.1,442.25,189.73,429.15,189.62z"></path>	</g>	<g>		<path class="st0" d="M145.9,297.23c-13.66-1.06-27.3-2.23-40.66-5.49c-4.48-7.37-4.58-15.46-4.31-23.77   c0.32-9.8,0.35-19.63-0.13-29.43c-0.85-17.03-3.58-33.46-19-44.52c11.34-8.66,17.09-20,18.55-33.85   c1.54-14.61,0.54-29.22,0.42-43.83c-0.07-8.35,2.08-15.8,6.69-22.66c12.82-2.28,25.76-3.32,38.78-3.11   c9.76,8.09,13.79,18.65,13.66,31.14c-0.11,9.99-0.4,20.01,0.22,29.96c0.95,15.27,2.77,30.45,16.78,40.41   c2.06,1.46,0.78,2.3-0.41,3.17c-9.49,7.05-13.77,17.03-15.65,28.24c-2.12,12.58-1.02,25.28-0.68,37.91   c0.35,13.2-2.41,24.75-12.95,33.56C146.59,295.48,146.33,296.46,145.9,297.23z"></path>		<path class="st1" d="M145.9,297.23c0.44-0.77,0.68-1.74,1.32-2.26c10.54-8.81,13.3-20.36,12.95-33.56   c-0.33-12.62-1.44-25.33,0.68-37.91c1.9-11.21,6.16-21.2,15.65-28.24c1.18-0.87,2.46-1.71,0.41-3.17   c-14.01-9.95-15.83-25.13-16.78-40.41c-0.62-9.95-0.33-19.97-0.22-29.96c0.13-12.48-3.91-23.05-13.66-31.14   c19.67-1.2,39.24-0.22,58.75,2.28c0.68,0.08,1.31,0.53,1.97,0.81c5.85,7.88,10,16.4,10.06,26.5c0.07,10.52,0.32,21.02,0.6,31.54   c0.46,16.69,3.13,32.15,18.6,42.82c-11.32,4.27-15.1,13.32-17.31,23.41c-2.86,13.02-2.51,26.27-1.88,39.43   c0.59,12.41-0.54,24.18-7.64,34.76l0.05-0.06c-0.35,0.29-0.71,0.58-1.05,0.87C187.76,297.53,166.88,298.03,145.9,297.23z"></path>		<path class="st0" d="M209.37,292.14c7.1-10.59,8.24-22.35,7.64-34.76c-0.62-13.15-0.98-26.4,1.88-39.43   c2.21-10.09,5.99-19.14,17.31-23.41c-15.46-10.67-18.14-26.13-18.6-42.82c-0.29-10.52-0.53-21.02-0.6-31.54   c-0.07-10.09-4.2-18.61-10.06-26.5c44.26,3.78,81.1,27.25,88.38,73.85c4.63,29.61,2.28,58.79-14.65,84.94   c-11.09,17.12-28.03,26.51-46.61,33.25C226.08,288.62,218.04,291.66,209.37,292.14z M269.18,160.55c0.06-5.02-4.37-9.67-9.42-9.89   c-4.92-0.21-9.61,4.32-9.76,9.44c-0.15,5.25,4.06,9.64,9.3,9.72C264.54,169.89,269.13,165.57,269.18,160.55z"></path>		<path class="st1" d="M107.45,93.68c-4.6,6.85-6.76,14.32-6.69,22.66c0.12,14.6,1.12,29.22-0.42,43.83   c-1.46,13.85-7.21,25.19-18.55,33.85c15.42,11.07,18.15,27.49,19,44.52c0.48,9.79,0.45,19.63,0.13,29.43   c-0.27,8.3-0.15,16.39,4.31,23.77c-12.15-2.21-23.78-6.12-35.08-10.99c-18.69-8.03-27.5-22.82-29.05-42.62   c-0.45-5.68-1.42-11.32-2.01-16.99c-1.22-11.71-5.49-21.39-18.23-26.41c18.69-8.34,21.65-24.11,22.23-41.11   c0.35-10.2,1.33-20.29,5.71-29.72c4.2-9.04,10.6-16.05,19.54-20.53C80.63,97.19,93.7,94.01,107.45,93.68z"></path>		<path class="st2" d="M269.18,160.55c-0.06,5.03-4.65,9.34-9.87,9.27c-5.24-0.07-9.46-4.46-9.3-9.72c0.15-5.12,4.84-9.67,9.76-9.44   C264.81,150.88,269.24,155.52,269.18,160.55z"></path>		<path class="st3" d="M152.32,69.1c-0.48,3.11,1.72,8.37-0.84,9.68c-3.17,1.61-6.27-2.99-9.13-5.11   c-10.73-7.96-21.26-16.2-29.61-26.86c-6.16-7.88-6.87-16.73-1.64-25.37c4.97-8.18,15.43-13,24.21-10.98   c6.04,1.4,10.01,5.06,11.81,11.14c2.19,7.38,3.03,14.99,3.93,22.59c0.48,4.06-0.06,8.24,0.51,12.28   C152.16,60.57,152.18,64.64,152.32,69.1z"></path>		<path class="st3" d="M162.36,67.01c1.01-12.78,0.97-27.23,4.15-41.41c1.58-7.04,4.29-13.05,11.99-14.81   c8.21-1.88,15.75,0.05,21.65,6.08c9.04,9.23,9.13,20.74,1,30.85c-9.96,12.39-22.68,21.55-35.36,30.78   c-2.47,1.8-3.49,1.04-3.43-1.87C162.4,73.96,162.36,71.28,162.36,67.01z"></path>	</g></g></svg>