<svg width="56" height="56" viewBox="0 0 56 56" fill="none" xmlns="http://www.w3.org/2000/svg">
<path d="M0 10.8446C0 4.85719 4.85719 0 10.8446 0H45.1554C51.1428 0 56 4.85719 56 10.8446V45.1554C56 51.1428 51.1428 56 45.1554 56H10.8446C4.85719 56 0 51.1428 0 45.1554V10.8446Z" fill="#1ECAD3"/>
<path fill-rule="evenodd" clip-rule="evenodd" d="M29.6348 18.7464H32.1626C32.4732 18.7464 32.6543 19.0915 32.4818 19.3503L26.9258 27.1925C26.6238 27.6239 25.9423 27.3133 26.0717 26.7957L27.4003 21.4899H24.8725C24.5619 21.4899 24.3807 21.1448 24.5533 20.886L30.1093 13.0437C30.4112 12.6124 31.0928 12.9229 30.9634 13.4406L29.6348 18.7464ZM21.4129 41.5053C21.1541 41.3327 21.0506 41.0135 21.1455 40.7288C21.2576 40.3751 21.6286 40.168 21.9823 40.2629C22.9659 40.5304 25.0882 40.9876 28.056 40.9876C31.0238 40.9876 33.1461 40.5304 34.1296 40.2629C34.4833 40.168 34.8543 40.3751 34.9665 40.7288C35.0614 41.0135 34.9492 41.3327 34.699 41.5053C33.8622 42.0747 31.7053 43.2308 28.056 43.2308C24.4066 43.2308 22.2498 42.0747 21.4129 41.5053Z" fill="#FFD100"/>
<path fill-rule="evenodd" clip-rule="evenodd" d="M13.7089 27.0733H17.3238C17.6516 27.0733 17.919 26.8058 17.919 26.4694V23.1996C17.919 23.1047 17.9967 23.0357 18.083 23.0357H21.8445C22.1723 23.0357 22.4398 22.7596 22.4398 22.4318V19.6365C22.4398 19.3087 22.1723 19.0326 21.8445 19.0326H18.083C17.9967 19.0326 17.919 18.9636 17.919 18.8687V17.3244C17.919 17.2381 17.9967 17.1605 18.083 17.1605H23.5354C23.8633 17.1605 24.1307 16.893 24.1307 16.5652V13.7613C24.1307 13.4335 23.8633 13.166 23.5354 13.166H13.7089C13.3724 13.166 13.105 13.4335 13.105 13.7613V26.4694C13.105 26.8058 13.3724 27.0733 13.7089 27.0733ZM36.6921 26.4694C36.6921 26.8058 36.9596 27.0733 37.2874 27.0733H40.9023C41.2387 27.0733 41.5062 26.8058 41.5062 26.4694V17.3244C41.5062 17.2381 41.5838 17.1605 41.6701 17.1605H44.3877C44.7155 17.1605 44.983 16.893 44.983 16.5652V13.7613C44.983 13.4335 44.7155 13.166 44.3877 13.166H33.8106C33.4827 13.166 33.2153 13.4335 33.2153 13.7613V16.5652C33.2153 16.893 33.4827 17.1605 33.8106 17.1605H36.5282C36.6145 17.1605 36.6921 17.2381 36.6921 17.3244V26.4694ZM15.1842 28.9281H18.8163C19.1441 28.9281 19.4116 29.1956 19.4116 29.5234V42.2315C19.4116 42.568 19.1441 42.8354 18.8163 42.8354H15.1842C14.8477 42.8354 14.5803 42.568 14.5803 42.2315V37.6763C14.5803 37.59 14.5113 37.5123 14.4164 37.5123H11.0258C10.9309 37.5123 10.8533 37.59 10.8533 37.6763V42.2315C10.8533 42.568 10.5858 42.8354 10.258 42.8354H6.64314C6.3153 42.8354 6.04785 42.568 6.04785 42.2315V29.5234C6.04785 29.1956 6.3153 28.9281 6.64314 28.9281H10.258C10.5858 28.9281 10.8533 29.1956 10.8533 29.5234V33.3712C10.8533 33.4575 10.9309 33.5351 11.0258 33.5351H14.4164C14.5113 33.5351 14.5803 33.4575 14.5803 33.3712V29.5234C14.5803 29.1956 14.8477 28.9281 15.1842 28.9281ZM49.961 38.7202C49.961 42.8354 45.7681 42.8354 44.4395 42.8354H37.2874C36.9596 42.8354 36.6921 42.568 36.6921 42.2315V29.5234C36.6921 29.1956 36.9596 28.9281 37.2874 28.9281H45.0348C47.1053 28.9281 48.5202 29.765 49.1155 31.3438C49.2708 31.7579 49.3571 32.1979 49.3484 32.6293C49.3398 33.4747 49.0637 34.2167 48.5288 34.8292C48.3477 35.0363 48.1147 35.2347 47.8387 35.3986C48.4167 35.6488 49.961 36.408 49.961 38.7202ZM44.6207 33.19C44.6207 32.4308 43.9995 32.3446 43.3179 32.3446H41.6701C41.5838 32.3446 41.5062 32.4136 41.5062 32.5085V33.9234C41.5062 34.0183 41.5838 34.0873 41.6701 34.0873H43.3179C44.0254 34.0873 44.6207 33.9492 44.6207 33.19ZM41.5062 39.0911C41.5062 39.186 41.5838 39.2637 41.6701 39.2637H43.594C44.1893 39.2637 44.6207 39.1602 44.8363 38.979C45.0348 38.8064 45.1383 38.5649 45.1383 38.2629C45.1383 37.9868 45.0434 37.7712 44.845 37.6072C44.7242 37.5123 44.405 37.3398 43.594 37.3398H41.6701C41.5838 37.3398 41.5062 37.4174 41.5062 37.5037V39.0911ZM34.9926 29.5321V34.743C34.9926 37.5382 33.4396 39.6778 28.0562 39.6778C22.6727 39.6778 21.1198 37.5382 21.1198 34.743V29.5321C21.1198 29.1956 21.3959 28.9281 21.741 28.9281H25.3127C25.6578 28.9281 25.9339 29.1956 25.9339 29.5321V33.3885C25.9339 34.6739 26.3997 35.2692 28.0562 35.2692C29.7126 35.2692 30.1785 34.6739 30.1785 33.3885V29.5321C30.1785 29.1956 30.4546 28.9281 30.7997 28.9281H34.3714C34.7165 28.9281 34.9926 29.1956 34.9926 29.5321Z" fill="#F2F7F7"/>
</svg>
